<svg width="16" height="17" viewBox="0 0 16 17" fill="none" xmlns="http://www.w3.org/2000/svg">
<path d="M8 16.5C5.87827 16.5 3.84344 15.6571 2.34315 14.1569C0.842855 12.6566 0 10.6217 0 8.5C0 6.37827 0.842855 4.34344 2.34315 2.84315C3.84344 1.34285 5.87827 0.5 8 0.5C8.45489 0.5 8.89978 0.546988 9.33367 0.61997V5.49875H10.9993V7.16633H15.88C15.953 7.60122 16 8.04611 16 8.5C16 10.6217 15.1571 12.6566 13.6569 14.1569C12.1566 15.6571 10.1217 16.5 8 16.5ZM9.9915 10.4915H6.34641C6.25626 10.4915 6.1698 10.4557 6.10606 10.3919C6.04231 10.3282 6.0065 10.2417 6.0065 10.1516V6.5125H3.56711C3.52249 6.5125 3.47832 6.52133 3.43714 6.53849C3.39596 6.55565 3.35858 6.58079 3.32717 6.61247L1.09773 8.84191C1.18082 10.5565 1.89972 12.1785 3.11416 13.3917C4.3286 14.6048 5.95145 15.322 7.66608 15.4033L9.89253 13.1758C9.95551 13.1128 9.9925 13.0259 9.9925 12.9359V10.4895L9.9915 10.4915Z" fill="#A3ACB9"/>
<path d="M15.8819 7.18432L12.6767 10.3915C12.6452 10.4232 12.6079 10.4483 12.5667 10.4655C12.5255 10.4827 12.4813 10.4915 12.4367 10.4915H9.99133V6.85041C9.99133 6.76079 9.95573 6.67484 9.89236 6.61147C9.82898 6.54809 9.74303 6.51249 9.65341 6.51249H6.00732V4.05811C6.00754 3.96804 6.0435 3.88174 6.1073 3.81817L9.3065 0.615967C10.9506 0.888471 12.4683 1.66815 13.6473 2.84591C14.8263 4.02367 15.6076 5.54056 15.8819 7.18432Z" fill="#4F566B"/>
</svg>
