<svg width="16" height="17" viewBox="0 0 16 17" fill="none" xmlns="http://www.w3.org/2000/svg">
<path fill-rule="evenodd" clip-rule="evenodd" d="M12.1932 6.46972C12.263 6.39999 12.3458 6.34468 12.4369 6.30694C12.528 6.2692 12.6256 6.24978 12.7242 6.24978C12.8229 6.24978 12.9205 6.2692 13.0116 6.30694C13.1027 6.34468 13.1855 6.39999 13.2552 6.46972C13.325 6.53946 13.3803 6.62224 13.418 6.71335C13.4558 6.80446 13.4752 6.90211 13.4752 7.00072C13.4752 7.09934 13.4558 7.19699 13.418 7.2881C13.3803 7.37921 13.325 7.46199 13.2552 7.53172L8.53024 12.2567C8.38959 12.3973 8.19886 12.4763 7.99999 12.4763C7.80112 12.4763 7.61039 12.3973 7.46974 12.2567L2.74474 7.53172C2.60391 7.39079 2.52483 7.19969 2.5249 7.00046C2.52497 6.80123 2.60419 6.61018 2.74511 6.46935C2.88604 6.32852 3.07715 6.24944 3.27638 6.24951C3.47561 6.24958 3.66666 6.32879 3.80749 6.46972L7.99999 10.663L12.1932 6.46972Z" fill="#4F566B"/>
</svg>
