<svg width="16" height="17" viewBox="0 0 16 17" fill="none" xmlns="http://www.w3.org/2000/svg">
<path d="M5.71626 3.87408V9.47104C5.71626 10.0168 5.27565 10.4594 4.72389 10.4594C4.1761 10.4594 3.73152 10.0079 3.73152 9.47203V3.88797L1.91946 5.70103C1.82745 5.79384 1.71801 5.86755 1.59742 5.91791C1.47682 5.96827 1.34746 5.9943 1.21678 5.99448C1.08609 5.99466 0.956658 5.96901 0.835924 5.91899C0.715189 5.86897 0.605536 5.79557 0.513272 5.70301C0.420268 5.61111 0.346465 5.50162 0.296155 5.38093C0.245844 5.26024 0.220031 5.13076 0.220216 5C0.220401 4.86925 0.24658 4.73983 0.29723 4.61929C0.347881 4.49874 0.421993 4.38947 0.515257 4.29782L4.02129 0.792778C4.11428 0.699148 4.22503 0.625026 4.34704 0.574756C4.46905 0.524486 4.59987 0.499081 4.73183 0.500029C4.98885 0.498045 5.24587 0.596289 5.44336 0.792778L8.94641 4.29782C9.34336 4.69477 9.33741 5.31599 8.94939 5.70301C8.85715 5.79542 8.74755 5.86869 8.62691 5.91862C8.50627 5.96856 8.37695 5.99417 8.24638 5.99398C8.11582 5.9938 7.98657 5.96782 7.86607 5.91755C7.74557 5.86728 7.63618 5.79369 7.5442 5.70103L5.71824 3.87507L5.71626 3.87408Z" fill="#A3ACB9"/>
<path d="M12.2509 13.1249V7.52795C12.2509 7.39786 12.2252 7.26905 12.1753 7.14893C12.1253 7.02881 12.0522 6.91974 11.96 6.82798C11.8677 6.73623 11.7583 6.6636 11.6379 6.61427C11.5176 6.56494 11.3886 6.53989 11.2585 6.54054C10.7108 6.54054 10.2662 6.99207 10.2662 7.52795V13.111L8.45411 11.2989C8.36212 11.2063 8.25274 11.1327 8.13224 11.0824C8.01174 11.0322 7.88249 11.0062 7.75193 11.006C7.62136 11.0058 7.49204 11.0314 7.3714 11.0813C7.25075 11.1313 7.14116 11.2046 7.04892 11.297C6.95591 11.3889 6.88211 11.4984 6.8318 11.619C6.78149 11.7397 6.75568 11.8692 6.75586 12C6.75605 12.1307 6.78222 12.2601 6.83288 12.3807C6.88353 12.5012 6.95764 12.6105 7.0509 12.7022L10.555 16.2062C10.7514 16.4037 11.0095 16.5009 11.2655 16.4999C11.3977 16.5008 11.5287 16.4753 11.6509 16.4249C11.7731 16.3744 11.884 16.3001 11.977 16.2062L15.4811 12.7022C15.878 12.3052 15.8711 11.684 15.4831 11.297C15.3908 11.2046 15.2812 11.1313 15.1606 11.0813C15.0399 11.0314 14.9106 11.0058 14.78 11.006C14.6495 11.0062 14.5202 11.0322 14.3997 11.0824C14.2792 11.1327 14.1698 11.2063 14.0779 11.2989L12.2519 13.1249H12.2509Z" fill="#4F566B"/>
</svg>
