<svg width="16" height="17" viewBox="0 0 16 17" fill="none" xmlns="http://www.w3.org/2000/svg">
<path d="M13.445 14.3611C12.413 13.3851 10.362 12.7201 8 12.7201C5.638 12.7201 3.587 13.3851 2.555 14.3611C1.37743 13.2671 0.556693 11.8437 0.199756 10.2766C-0.157181 8.70937 -0.033767 7.07101 0.553915 5.57497C1.1416 4.07894 2.16629 2.79463 3.49446 1.88939C4.82263 0.984164 6.39268 0.5 8 0.5C9.60732 0.5 11.1774 0.984164 12.5055 1.88939C13.8337 2.79463 14.8584 4.07894 15.4461 5.57497C16.0338 7.07101 16.1572 8.70937 15.8002 10.2766C15.4433 11.8437 14.6226 13.2671 13.445 14.3611ZM8 9.73106C8.81607 9.73106 9.59872 9.40687 10.1758 8.82982C10.7528 8.25277 11.077 7.47013 11.077 6.65406C11.077 5.83798 10.7528 5.05534 10.1758 4.47829C9.59872 3.90124 8.81607 3.57706 8 3.57706C7.18393 3.57706 6.40128 3.90124 5.82423 4.47829C5.24719 5.05534 4.923 5.83798 4.923 6.65406C4.923 7.47013 5.24719 8.25277 5.82423 8.82982C6.40128 9.40687 7.18393 9.73106 8 9.73106Z" fill="#4F566B"/>
<path d="M13.9442 13.854C13.1948 14.6878 12.2782 15.3544 11.2541 15.8103C10.2299 16.2662 9.1212 16.5012 8.00015 16.5C6.87911 16.5012 5.77039 16.2662 4.74624 15.8103C3.72208 15.3544 2.80548 14.6878 2.05615 13.854C2.76015 12.543 5.15415 11.577 8.00015 11.577C10.8462 11.577 13.2402 12.543 13.9442 13.854Z" fill="#A3ACB9"/>
</svg>
