<svg width="16" height="17" viewBox="0 0 16 17" fill="none" xmlns="http://www.w3.org/2000/svg">
<g clip-path="url(#clip0_228_127)">
<path d="M10.9182 9.99396C11.0589 9.85313 11.2498 9.77397 11.4489 9.7739C11.648 9.77383 11.839 9.85286 11.9798 9.99359C12.1206 10.1343 12.1998 10.3252 12.1999 10.5243C12.1999 10.7234 12.1209 10.9144 11.9802 11.0552L8.75518 14.2802C8.61454 14.4208 8.42381 14.4998 8.22493 14.4998C8.02606 14.4998 7.83533 14.4208 7.69468 14.2802L4.46968 11.0552C4.32895 10.9143 4.24997 10.7232 4.25011 10.5241C4.25025 10.3249 4.3295 10.1339 4.47043 9.99321C4.61136 9.85248 4.80242 9.7735 5.00159 9.77364C5.20075 9.77378 5.3917 9.85303 5.53243 9.99396L8.22493 12.6872L10.9182 9.99396V9.99396ZM10.9182 7.00596L8.22493 4.31271L5.53168 7.00596C5.39095 7.14679 5.20004 7.22595 5.00095 7.22602C4.80185 7.22609 4.61089 7.14707 4.47006 7.00634C4.32923 6.86561 4.25007 6.6747 4.25 6.4756C4.24993 6.27651 4.32895 6.08554 4.46968 5.94471L7.69468 2.71971C7.83533 2.57911 8.02606 2.50012 8.22493 2.50012C8.42381 2.50012 8.61454 2.57911 8.75518 2.71971L11.9802 5.94471C12.0499 6.01444 12.1051 6.09722 12.1428 6.18831C12.1805 6.2794 12.1999 6.37702 12.1999 6.4756C12.1998 6.57418 12.1804 6.67179 12.1426 6.76286C12.1049 6.85392 12.0495 6.93665 11.9798 7.00634C11.9101 7.07602 11.8273 7.13129 11.7362 7.16898C11.6451 7.20667 11.5475 7.22605 11.4489 7.22602C11.3503 7.22598 11.2527 7.20653 11.1617 7.16878C11.0706 7.13102 10.9879 7.07569 10.9182 7.00596V7.00596Z" fill="#4F566B"/>
</g>
<defs>
<clipPath id="clip0_228_127">
<rect width="12" height="12" fill="white" transform="translate(2 2.5)"/>
</clipPath>
</defs>
</svg>
