<svg width="16" height="17" viewBox="0 0 16 17" fill="none" xmlns="http://www.w3.org/2000/svg">
<path d="M13.5872 3.87862H13.9172L14.2592 4.03862C14.5962 4.19862 15.0002 4.67862 15.0002 5.12862V12.1946C15.0002 12.5606 14.5962 12.8946 14.2592 13.0556L8.53316 15.8256C8.41016 15.8836 8.27516 15.9126 8.00016 15.9126V9.89562H2.66016V4.56262L9.70416 1.96962L9.82116 1.85962L12.3002 3.06062L11.9642 3.89562L13.5882 3.87862H13.5872Z" fill="#4F566B"/>
<path d="M8.00002 7.62859V15.8756C8.00002 15.8756 7.45402 15.8976 7.28502 15.8246L1.53302 13.0706C1.3721 12.9918 1.2367 12.8693 1.1424 12.7169C1.0481 12.5646 0.998748 12.3887 1.00002 12.2096V4.91459C0.998818 4.73559 1.04821 4.55988 1.14251 4.40773C1.23681 4.25558 1.37218 4.13316 1.53302 4.05459L7.63702 1.17259C7.75664 1.11491 7.88773 1.08496 8.02052 1.08496C8.15332 1.08496 8.28441 1.11491 8.40402 1.17259L10.157 2.01059L3.24402 5.31759C3.16632 5.35671 3.10108 5.41676 3.05567 5.49097C3.01026 5.56517 2.98649 5.65059 2.98702 5.73759L2.99402 7.76759L5.00202 8.79959V6.70559C5.00149 6.61897 5.02505 6.53391 5.07009 6.45992C5.11512 6.38592 5.17984 6.32591 5.25702 6.28659L12.163 2.97359L14.154 3.92659C14.342 4.01959 14.504 4.19459 14.66 4.35359L8.00002 7.62859Z" fill="#A3ACB9"/>
</svg>
