<svg width="12" height="13" viewBox="0 0 12 13" fill="none" xmlns="http://www.w3.org/2000/svg">
<path fill-rule="evenodd" clip-rule="evenodd" d="M0 6.5H12V11C12 11.3978 11.842 11.7794 11.5607 12.0607C11.2794 12.342 10.8978 12.5 10.5 12.5H1.5C1.10218 12.5 0.720644 12.342 0.43934 12.0607C0.158035 11.7794 0 11.3978 0 11V6.5ZM9.75 2H10.5C10.8978 2 11.2794 2.15804 11.5607 2.43934C11.842 2.72064 12 3.10218 12 3.5V5H0V3.5C0 3.10218 0.158035 2.72064 0.43934 2.43934C0.720644 2.15804 1.10218 2 1.5 2H2.25V2.75C2.25 2.94891 2.32902 3.13968 2.46967 3.28033C2.61032 3.42098 2.80109 3.5 3 3.5C3.19891 3.5 3.38968 3.42098 3.53033 3.28033C3.67098 3.13968 3.75 2.94891 3.75 2.75V2H8.25V2.75C8.25 2.94891 8.32902 3.13968 8.46967 3.28033C8.61032 3.42098 8.80109 3.5 9 3.5C9.19891 3.5 9.38968 3.42098 9.53033 3.28033C9.67098 3.13968 9.75 2.94891 9.75 2.75V2ZM3 0.5C3.19891 0.5 3.38968 0.579018 3.53033 0.71967C3.67098 0.860322 3.75 1.05109 3.75 1.25V2H2.25V1.25C2.25 1.05109 2.32902 0.860322 2.46967 0.71967C2.61032 0.579018 2.80109 0.5 3 0.5V0.5ZM9 0.5C9.19891 0.5 9.38968 0.579018 9.53033 0.71967C9.67098 0.860322 9.75 1.05109 9.75 1.25V2H8.25V1.25C8.25 1.05109 8.32902 0.860322 8.46967 0.71967C8.61032 0.579018 8.80109 0.5 9 0.5V0.5Z" fill="#4F566B"/>
</svg>
